# xmcd
#
# Track frame offsets:
#	180
#	16110
#	34141
#	48778
#	60593
#	76290
#	96754
#	112295
#	128696
#	145236
#	161836
#	177499
#	195573
#	209105
#	224821
#	239602
#	251917
#	269193
#	284586
#	297883
#
# Disc length: 4196 seconds
#
# Revision: 0
# Processed by: cddbd v1.4PL0 Copyright (c) Steve Scherf et al.
# Submitted via: EasyCDDAExtractor 5.0.5.1
#
DISCID=48106214
DTITLE=Various Artist - VARIADO
DYEAR=2002
DGENRE=BOLERO
TTITLE0=SANDRO - PENUMBRAS
TTITLE1=DIEGO VERDAGUER - VOLVERE
TTITLE2=KING CLAVE - LOS HOMBRES NO DEBEN LLORAR
TTITLE3=FERNANDO VALADEZ - COMO DE QUE NO
TTITLE4=LOS BUKIS - A DONDE VAYAS
TTITLE5=NINO BRAVO - UN BESO Y UNA FLOR
TTITLE6=PEKOS KANVAS - TAN DENTRO DE MI ALMA
TTITLE7=LUISA MARIA GUEL - NUESTRO AMOR DE VERANO
TTITLE8=NEY NILO - LEJOS DE TI
TTITLE9=CAMBOY ESTEVEZ - MI CALLE TRISTE
TTITLE10=MANOLO GALVAN - MI PEQUEÑO GORION
TTITLE11=EMILIO JOSE - SOLEDAD
TTITLE12=NELSON NED - DEJENME SI ESTOY LLORANDO
TTITLE13=ANTHONY RIOS - HOY DARIA YO LA VIDA
TTITLE14=LEO DAN - LLEGASTE CUANDO MENOS LO ESPERABA
TTITLE15=LOS ANGELES NEGRO - COMO QUISIERA DECIRTE
TTITLE16=MARIO ECHAVARIA - EN ESTE MOMENTO
TTITLE17=NICOLA DI BARI - GUITARRA SUENA MAS BAJO
TTITLE18=EL GRECO - UNA CALLE CUALQUIERA
TTITLE19=LEONARDO FAVIO - EL NIÑO Y EL CANARIO
EXTD=
EXTT0=
EXTT1=
EXTT2=
EXTT3=
EXTT4=
EXTT5=
EXTT6=
EXTT7=
EXTT8=
EXTT9=
EXTT10=
EXTT11=
EXTT12=
EXTT13=
EXTT14=
EXTT15=
EXTT16=
EXTT17=
EXTT18=
EXTT19=
PLAYORDER=
